inDegrees=yes
name=ik_data_2024_11_07_17_49
DataType=double
version=3
OpenSimVersion=4.5.1
endheader
time	pelvis_tilt	pelvis_list	pelvis_rotation	pelvis_tx	pelvis_ty	pelvis_tz	hip_flexion_r	hip_adduction_r	hip_rotation_r	knee_angle_r	knee_angle_r_beta	ankle_angle_r	subtalar_angle_r	mtp_angle_r	hip_flexion_l	hip_adduction_l	hip_rotation_l	knee_angle_l	knee_angle_l_beta	ankle_angle_l	subtalar_angle_l	mtp_angle_l	lumbar_extension	lumbar_bending	lumbar_rotation	arm_flex_r	arm_add_r	arm_rot_r	elbow_flex_r	pro_sup_r	wrist_flex_r	wrist_dev_r	arm_flex_l	arm_add_l	arm_rot_l	elbow_flex_l	pro_sup_l	wrist_flex_l	wrist_dev_l
0	-0.000423161339737322	0.03824217122963587	-91.74002047317633	0	0.9399999999999999	0	0.3115669356104042	-0.001357621860492855	-0.09152418505297073	0.5167000291118983	0.009018116753153177	-1.079560193095435	0	0	0.3089372541751083	-0.0180848519467604	-0.06062414114416486	0.5162553852170152	0.009010356253188575	-1.079560193095435	0	0	0	0	0	0	-0.7085718831702197	0	10.48889755055206	10.44970997478537	0	0	0	-0.7085718831702197	0	10.48889755055206	10.44970997478537	0	0
0.1235	-0.001571224742735955	0.006767530217740035	-91.7557351123323	0	0.9399999999999999	0	0.2191364123709622	-0.01052525778180268	0.009177268424673261	0.4747688521644848	0.008286279656184467	-1.085538735827503	0	0	0.2700702619589798	-0.003248860075405093	-0.09099626830453574	0.5097266189649362	0.008896407785996707	-1.085538735827503	0	0	0	0	0	0	-0.7110718645675319	0	10.5678716678122	10.52392740334767	0	0	0	-0.7110718645675319	0	10.5678716678122	10.52392740334767	0	0
0.1255	-0.007742466944858624	0.0155597865082833	-91.7492211301326	0	0.9399999999999999	0	0.255429860960164	-0.02973032966264714	0.04000535158885185	0.4898151151479301	0.008548886485366532	-1.087332374612621	0	0	0.278199303518684	-0.02307635925561596	-0.07656523949376969	0.5275346591740697	0.009207216720973627	-1.087332374612621	0	0	0	0	0	0	-0.7118801587494276	0	10.58999092674484	10.5445543516356	0	0	0	-0.7118801587494276	0	10.58999092674484	10.5445543516356	0	0
0.14631	-0.0449272262343937	0.01097248515173648	-91.7511898829665	0	0.9399999999999999	0	0.153181613537245	0.05268616854414498	0.1870493362991225	0.3736238064311765	0.006520965586057995	-1.093140789692235	0	0	0.2776784428923614	-0.05379869268700228	-0.08671895964219625	0.5111541107657401	0.008921322217965958	-1.093140789692235	0	0	0	0	0	0	-0.7142804290556388	0	10.66690075777901	10.61690407789304	0	0	0	-0.7142804290556388	0	10.66690075777901	10.61690407789304	0	0
0.18468	-0.01933744609208754	-0.01790446695239588	-91.75765493134097	0	0.9399999999999999	0	0.1634807661876949	0.02795585799593767	0.1275936196810524	0.4032726706013492	0.007038435885304085	-1.095312923247949	0	0	0.2604906744406246	-0.030861223593343	-0.08257571116742027	0.5172713530484617	0.009028088236941664	-1.095312923247949	0	0	0	0	0	0	-0.7151940922083252	0	10.69530273751226	10.64359726902833	0	0	0	-0.7151940922083252	0	10.69530273751226	10.64359726902833	0	0
0.2298	-0.0001496499435085599	-0.019116806056108	-91.74742183900963	0	0.9399999999999999	0	0.1768083116958827	-0.04881440611599382	0.08298932710333848	0.3872308367088765	0.006758453065822417	-1.09872175116364	0	0	0.2503192728582657	-0.0131439004188139	-0.07495319496358702	0.5105266727982782	0.008910371359581728	-1.09872175116364	0	0	0	0	0	0	-0.7166221186770503	0	10.73986258149096	10.68548713276407	0	0	0	-0.7166221186770503	0	10.73986258149096	10.68548713276407	0	0
0.26693	0.008608716498361427	-0.002909748446000798	-91.74421823740747	0	0.9399999999999999	0	0.1863205827071936	-0.05854639288287451	0.09445135083506143	0.3737710655557412	0.006523535742635254	-1.101776743710527	0	0	0.2638729290405243	-0.00270457494737255	-0.06507477401141501	0.5063578232020358	0.008837611208106862	-1.101776743710527	0	0	0	0	0	0	-0.7179202290306972	0	10.77937185354415	10.72260018078408	0	0	0	-0.7179202290306972	0	10.77937185354415	10.72260018078408	0	0
0.31875	-0.005954731345948052	0.005418945135323781	-91.7431269183552	0	0.9399999999999999	0	0.1884668364561715	-0.009303844716293658	0.1172537715774792	0.3643238481081467	0.006358650693022875	-1.104593948102582	0	0	0.2740884418310917	-0.01357199876746451	-0.06236105958092597	0.5070185552052885	0.008849143157036918	-1.104593948102582	0	0	0	0	0	0	-0.7191276084981847	0	10.81545573979812	10.7564630290164	0	0	0	-0.7191276084981847	0	10.81545573979812	10.7564630290164	0	0
0.35955	0.006921857839715214	0.0224639582848601	-91.75072208020308	0	0.9399999999999999	0	0.2335410449551928	0.001991240553823233	0.05902560363685969	0.3747970465353149	0.006541442488791651	-1.10703004705021	0	0	0.2887266610190425	-0.002814550353156357	-0.07676899383705763	0.5066092624575442	0.008841999650984247	-1.10703004705021	0	0	0	0	0	0	-0.7201589130361239	0	10.84684232610485	10.78594121268754	0	0	0	-0.7201589130361239	0	10.84684232610485	10.78594121268754	0	0
0.4099	0.0447228473950244	0.05126474998518208	-91.74669103823702	0	0.9399999999999999	0	0.2591046411987745	-0.001893760983849392	0.06513014550790941	0.359167232788953	0.006268650777444165	-1.110917738190095	0	0	0.315498923169019	0.03123137589475819	-0.07416524679470055	0.5072782717239226	0.0088536760654089	-1.110917738190095	0	0	0	0	0	0	-0.7218126291505038	0	10.89670848282678	10.8327701549386	0	0	0	-0.7218126291505038	0	10.89670848282678	10.8327701549386	0	0
